<svg width="20" height="16" viewBox="0 0 20 16" fill="none" xmlns="http://www.w3.org/2000/svg">
<path fill-rule="evenodd" clip-rule="evenodd" d="M1.32347 6.86837C6.49138 4.61681 9.93746 3.13243 11.6617 2.41526C16.5848 0.367575 17.6078 0.0118708 18.2745 0.000125234C18.4212 -0.00245807 18.7491 0.0338856 18.9615 0.20623C19.1408 0.351754 19.1902 0.548337 19.2138 0.68631C19.2374 0.824283 19.2668 1.13859 19.2434 1.38418C18.9766 4.1873 17.8223 10.9897 17.235 14.1293C16.9865 15.4577 16.4972 15.9032 16.0235 15.9467C14.994 16.0415 14.2123 15.2664 13.2152 14.6128C11.655 13.59 10.7735 12.9534 9.25904 11.9554C7.50879 10.802 8.6434 10.168 9.64086 9.13204C9.90191 8.86091 14.4377 4.73522 14.5255 4.36095C14.5365 4.31414 14.5467 4.13966 14.4431 4.04753C14.3394 3.9554 14.1864 3.98691 14.076 4.01196C13.9195 4.04748 11.427 5.69494 6.59849 8.95433C5.891 9.44014 5.25017 9.67685 4.67602 9.66444C4.04306 9.65077 2.82549 9.30656 1.92036 9.01234C0.810181 8.65146 -0.0721689 8.46066 0.00466397 7.84779C0.0446833 7.52856 0.484286 7.20209 1.32347 6.86837Z" fill="#697890"/>
</svg>
