<svg width="24" height="13" viewBox="0 0 24 13" fill="none" xmlns="http://www.w3.org/2000/svg">
<path fill-rule="evenodd" clip-rule="evenodd" d="M12.7456 12.9457C12.7456 12.9457 13.1646 12.9 13.3792 12.6737C13.5756 12.4664 13.5688 12.0752 13.5688 12.0752C13.5688 12.0752 13.5427 10.2485 14.4067 9.97882C15.2583 9.71357 16.3517 11.7453 17.5121 12.5266C18.3886 13.1173 19.0539 12.988 19.0539 12.988L22.1548 12.9457C22.1548 12.9457 23.7761 12.8476 23.0074 11.596C22.9439 11.4934 22.559 10.6698 20.7026 8.97799C18.7576 7.20702 19.0187 7.49345 21.36 4.42965C22.786 2.56395 23.356 1.42491 23.1778 0.937868C23.0086 0.472 21.9595 0.595711 21.9595 0.595711L18.4692 0.616887C18.4692 0.616887 18.2103 0.582337 18.0185 0.694903C17.8311 0.80524 17.7096 1.06269 17.7096 1.06269C17.7096 1.06269 17.1578 2.50599 16.4209 3.73419C14.8666 6.32432 14.2455 6.46141 13.9911 6.30092C13.3996 5.92533 13.5472 4.79409 13.5472 3.99053C13.5472 1.47952 13.9355 0.432992 12.7922 0.162164C12.4129 0.0718886 12.1336 0.0128192 11.1628 0.00278856C9.91729 -0.00947112 8.86363 0.00724662 8.2664 0.293677C7.86901 0.48426 7.56245 0.910005 7.74979 0.934524C7.98028 0.964616 8.50257 1.07272 8.77961 1.44274C9.13726 1.92087 9.12477 2.99304 9.12477 2.99304C9.12477 2.99304 9.33029 5.94873 8.6445 6.31541C8.17444 6.56729 7.52952 6.0535 6.14319 3.70298C5.43355 2.4993 4.89764 1.16857 4.89764 1.16857C4.89764 1.16857 4.79432 0.920035 4.60925 0.786293C4.38557 0.624689 4.07333 0.574535 4.07333 0.574535L0.756795 0.595711C0.756795 0.595711 0.25835 0.609085 0.0755484 0.821958C-0.0868154 1.01031 0.0630589 1.40151 0.0630589 1.40151C0.0630589 1.40151 2.65974 7.36528 5.60046 10.3711C8.29706 13.1262 11.3581 12.9457 11.3581 12.9457H12.7456Z" fill="#697890"/>
</svg>
